<svg width="93" height="52" viewBox="0 0 93 52" fill="none" xmlns="http://www.w3.org/2000/svg">
<path id="Arrow 1" d="M91.4749 28.5807C92.8417 27.2139 92.8417 24.9978 91.4749 23.631L69.201 1.3571C67.8342 -0.00973701 65.6181 -0.00973701 64.2513 1.3571C62.8844 2.72393 62.8844 4.94001 64.2513 6.30684L84.0503 26.1058L64.2513 45.9048C62.8844 47.2717 62.8844 49.4877 64.2513 50.8546C65.6181 52.2214 67.8342 52.2214 69.201 50.8546L91.4749 28.5807ZM4 22.6058C2.067 22.6058 0.5 24.1728 0.5 26.1058C0.5 28.0388 2.067 29.6058 4 29.6058V22.6058ZM89 22.6058L4 22.6058V29.6058L89 29.6058V22.6058Z" fill="black"/>
</svg>
