<?xml version="1.0" standalone="no"?>
<!DOCTYPE svg PUBLIC "-//W3C//DTD SVG 20010904//EN"
 "http://www.w3.org/TR/2001/REC-SVG-20010904/DTD/svg10.dtd">
<svg version="1.0" xmlns="http://www.w3.org/2000/svg"
 width="1275.000000pt" height="915.000000pt" viewBox="0 0 1275.000000 915.000000"
 preserveAspectRatio="xMidYMid meet">

<g transform="translate(0.000000,915.000000) scale(0.100000,-0.100000)"
fill="#000000" stroke="none">
<path d="M0 4575 l0 -4575 6375 0 6375 0 0 4575 0 4575 -6375 0 -6375 0 0
-4575z m50 3611 c0 -166 -4 -267 -10 -271 -7 -4 -10 87 -10 264 0 174 4 271
10 271 6 0 10 -95 10 -264z m4185 138 c9 -4 20 -16 25 -28 4 -12 3 -137 -2
-279 -10 -232 -9 -259 6 -282 12 -18 25 -25 50 -25 41 0 53 -23 31 -56 -31
-47 -117 -44 -159 6 -41 49 -49 90 -44 232 l4 129 -36 -6 c-49 -10 -50 -11
-34 -50 18 -44 18 -108 -1 -145 -26 -51 -111 -100 -171 -100 -17 0 -24 -6 -24
-19 0 -16 9 -21 48 -26 131 -18 182 -55 182 -133 0 -38 -5 -49 -35 -77 -102
-97 -330 -84 -379 20 -24 49 -13 86 36 131 35 31 41 43 42 78 1 35 -4 46 -35
76 -75 72 -73 169 5 246 48 49 113 68 186 54 35 -6 55 -4 94 12 28 10 67 20
88 20 l38 0 0 94 c0 81 3 97 20 114 21 21 37 24 65 14z m3649 -10 c19 -18 19
-10 5 -204 -11 -161 -2 -351 19 -372 5 -5 25 -13 44 -17 44 -9 49 -41 11 -71
-34 -26 -84 -22 -118 10 -26 25 -33 25 -59 1 -51 -45 -127 -52 -203 -17 -71
34 -103 88 -103 178 0 114 39 186 124 230 48 25 116 27 150 4 l26 -16 0 97 c0
54 5 115 10 135 16 55 61 75 94 42z m2006 6 c13 -8 15 -50 15 -277 0 -293 3
-310 56 -330 55 -21 25 -83 -41 -83 -27 0 -43 7 -64 29 l-29 30 -31 -23 c-69
-52 -129 -57 -204 -20 -76 38 -106 91 -100 183 4 84 46 174 96 208 49 33 119
45 160 27 19 -8 36 -14 38 -14 2 0 4 42 4 93 0 50 5 109 10 129 15 51 53 72
90 48z m-6973 -66 c54 -26 93 -65 93 -92 0 -19 -29 -52 -45 -52 -7 0 -42 16
-79 35 -37 19 -81 35 -97 35 -91 0 -177 -51 -210 -124 -26 -58 -26 -174 1
-225 60 -119 221 -148 309 -57 25 26 35 46 38 80 5 43 4 46 -18 46 -146 3
-179 12 -179 48 0 37 30 52 104 51 116 -1 177 -13 198 -39 51 -63 -18 -245
-114 -300 -39 -23 -54 -25 -158 -25 -99 0 -121 3 -155 22 -137 74 -195 230
-146 391 38 126 116 199 242 227 80 18 149 11 216 -21z m258 24 c51 -23 47
-86 -7 -106 -33 -13 -40 -13 -63 2 -19 13 -25 25 -25 54 0 59 35 78 95 50z
m4920 -13 c14 -13 25 -31 25 -38 0 -25 -33 -55 -67 -62 -56 -11 -92 50 -63
106 16 29 74 26 105 -6z m1060 11 c41 -18 47 -54 15 -86 -18 -18 -29 -19 -152
-14 -165 7 -165 8 -174 -98 l-7 -78 140 7 c135 6 141 5 147 -14 17 -54 -26
-74 -177 -82 l-112 -6 -3 -62 c-3 -56 0 -66 22 -88 33 -32 96 -33 213 -3 62
17 88 20 101 12 21 -13 28 -60 12 -80 -43 -50 -312 -78 -380 -38 -65 38 -75
62 -79 197 -4 136 15 338 35 378 28 56 63 65 252 68 78 1 123 -3 147 -13z
m-3020 -53 c14 -14 16 -30 12 -86 l-5 -69 52 6 c28 3 81 6 118 6 l67 0 3 72
c3 72 3 72 36 82 26 7 36 5 53 -10 19 -17 21 -27 16 -81 l-5 -63 55 0 c66 0
93 -13 93 -44 0 -34 -18 -44 -93 -52 l-67 -7 0 -98 c0 -54 4 -109 10 -123 14
-37 44 -50 87 -35 30 9 38 9 51 -5 15 -15 15 -19 2 -44 -22 -38 -57 -54 -113
-49 -58 5 -95 30 -122 83 -16 32 -20 59 -20 156 l0 118 -117 0 -118 0 0 -89
c0 -114 7 -149 36 -168 19 -12 29 -13 59 -3 62 20 88 -25 40 -70 -51 -48 -162
-32 -207 30 -23 32 -42 158 -35 238 5 62 5 62 -22 62 -33 0 -51 17 -51 47 0
24 26 43 58 43 25 0 32 18 32 89 0 50 3 59 23 69 32 16 53 14 72 -5z m1050 0
c14 -14 16 -30 13 -84 l-5 -67 52 5 c62 7 95 -8 95 -42 0 -32 -28 -46 -101
-52 l-59 -6 0 -76 c1 -145 25 -200 80 -186 62 16 75 12 78 -22 4 -39 -27 -63
-92 -70 -57 -7 -109 18 -138 65 -19 32 -23 54 -26 164 -4 115 -6 128 -22 128
-10 0 -25 3 -34 6 -13 5 -14 1 -6 -27 13 -44 -1 -87 -41 -125 -30 -28 -33 -29
-140 -29 -114 0 -121 -3 -94 -42 26 -37 78 -48 158 -33 73 14 99 8 105 -24 12
-61 -141 -106 -245 -72 -90 30 -143 109 -143 213 1 161 139 265 295 222 22 -6
50 -20 61 -31 18 -16 22 -17 27 -4 3 8 24 27 47 41 39 24 40 27 40 80 0 44 4
57 22 69 29 21 52 20 73 -1z m-3484 -133 c21 -12 25 -50 7 -68 -7 -7 -31 -12
-55 -12 l-44 0 15 -28 c23 -44 29 -97 16 -136 -21 -65 -112 -126 -187 -126
-25 0 -40 -17 -27 -30 5 -5 40 -14 79 -20 93 -15 134 -36 151 -76 30 -71 11
-125 -56 -159 -169 -85 -360 -26 -360 111 0 30 7 44 41 76 22 21 37 43 34 48
-3 5 1 23 10 39 15 30 15 31 -15 46 -38 20 -70 82 -70 138 0 46 37 111 84 149
33 27 115 41 170 28 40 -9 52 -7 84 9 41 22 93 27 123 11z m-507 -33 c20 -30
25 -400 6 -423 -17 -19 -53 -18 -78 4 -20 16 -22 32 -28 210 -6 177 -5 194 11
212 25 27 71 26 89 -3z m1434 -3 c69 -34 105 -91 100 -161 -4 -69 -35 -83
-185 -83 -106 0 -111 -1 -106 -20 3 -11 19 -31 35 -45 40 -34 100 -34 150 0
20 14 43 25 51 25 20 0 49 -36 45 -56 -10 -51 -142 -105 -220 -90 -59 11 -117
56 -143 111 -51 107 -42 198 28 272 71 75 157 91 245 47z m421 -12 c58 -46 53
-112 -9 -112 -17 0 -33 8 -42 21 -18 28 -103 38 -132 16 -32 -24 -12 -44 66
-68 145 -43 185 -77 175 -152 -8 -59 -56 -101 -131 -117 -102 -21 -185 3 -227
66 -23 35 -24 58 -3 78 24 25 51 19 85 -18 17 -19 44 -38 59 -41 35 -8 106 11
113 29 8 19 -21 42 -63 51 -157 33 -232 115 -186 204 20 38 40 52 94 68 74 21
157 11 201 -25z m312 2 c15 -13 22 -12 64 11 26 14 57 25 67 25 36 0 90 -33
102 -61 11 -27 12 -27 24 -9 30 49 146 81 220 61 113 -31 170 -163 99 -229
-31 -29 -124 -46 -204 -37 -66 7 -73 2 -53 -36 27 -50 115 -63 187 -27 51 26
76 18 81 -25 10 -86 -166 -126 -285 -66 -69 35 -98 95 -98 205 0 73 -2 80 -18
76 -10 -3 -28 5 -42 18 -32 30 -69 21 -91 -22 -13 -24 -16 -60 -16 -152 0 -96
-3 -125 -15 -138 -19 -21 -52 -23 -77 -5 -17 12 -19 30 -18 173 0 156 0 159
-25 186 -61 64 31 113 98 52z m2733 20 c13 -13 16 -44 16 -177 0 -89 3 -178 6
-198 10 -61 -51 -94 -94 -51 -16 16 -20 44 -26 213 -7 191 -6 194 15 212 26
21 63 22 83 1z m377 -16 c66 -37 96 -119 68 -182 -20 -44 -72 -60 -186 -60
-57 0 -103 -1 -103 -3 0 -1 5 -14 12 -28 25 -56 109 -71 186 -33 53 25 75 17
80 -29 8 -83 -163 -121 -282 -63 -41 19 -52 32 -74 79 -52 113 -38 213 42 290
67 65 172 77 257 29z m819 -3 c13 -12 23 -11 68 12 64 32 109 26 146 -18 31
-37 32 -49 5 -83 -25 -32 -45 -33 -75 -5 -17 15 -30 20 -48 15 -44 -11 -56
-51 -56 -187 0 -133 -9 -159 -56 -159 -49 0 -54 19 -54 189 0 156 0 158 -25
181 -66 62 28 115 95 55z m1007 11 c35 -18 73 -87 73 -132 0 -43 -35 -93 -78
-111 -28 -12 -59 -14 -124 -10 -98 5 -106 -1 -64 -50 21 -24 31 -28 78 -27 29
0 76 4 104 8 48 8 52 7 59 -13 17 -54 -38 -91 -145 -98 -57 -4 -72 -1 -120 24
-64 33 -94 73 -110 147 -26 125 39 237 160 277 36 12 132 4 167 -15z m-3790
-1276 c19 -40 26 -180 9 -186 -8 -3 -62 -2 -122 3 l-108 8 33 35 c21 23 34 31
38 23 8 -21 43 -15 43 7 0 17 -7 20 -47 21 -27 1 -59 4 -73 8 -25 7 -25 7 15
33 32 21 42 23 48 12 12 -21 45 -17 52 6 9 28 55 61 79 58 12 -2 26 -14 33
-28z m1748 5 c45 -25 48 -25 73 -9 40 26 98 25 159 -3 50 -23 58 -24 98 -13
47 13 50 13 235 -32 161 -38 237 -63 330 -106 41 -19 107 -49 145 -67 233
-108 550 -271 625 -319 19 -13 69 -42 110 -66 103 -59 228 -145 271 -187 20
-19 45 -54 54 -76 9 -23 25 -61 36 -85 21 -47 24 -72 9 -72 -19 0 -10 -21 15
-32 14 -6 25 -18 25 -27 0 -9 9 -22 20 -29 11 -7 20 -21 20 -33 0 -11 4 -18 9
-15 5 4 7 -2 4 -13 -4 -14 2 -19 25 -23 35 -5 54 0 46 13 -3 5 4 9 15 9 24 0
71 -79 78 -132 4 -23 11 -38 19 -38 8 0 14 5 14 11 0 5 5 7 10 4 6 -4 8 -10 5
-15 -3 -4 3 -14 12 -21 15 -13 16 -11 9 11 -12 43 -12 55 4 55 9 0 14 -7 12
-18 -3 -16 3 -18 38 -14 22 2 38 2 36 -1 -3 -2 7 -14 21 -26 21 -18 26 -32 29
-89 3 -53 1 -69 -11 -73 -24 -9 -9 -130 22 -176 14 -20 22 -42 18 -47 -3 -6 2
-11 13 -11 21 0 45 -42 36 -64 -7 -19 14 -31 30 -17 16 13 26 4 26 -22 0 -10
-9 -21 -20 -24 -17 -5 -22 -11 -22 -33 -1 -3 2 -19 5 -37 5 -25 2 -33 -11 -36
-10 -3 -5 -5 11 -6 20 -1 26 -5 20 -13 -29 -46 -43 -141 -22 -154 6 -3 9 -15
6 -25 -3 -11 -1 -19 4 -19 5 0 9 -9 9 -20 0 -11 7 -20 15 -20 9 0 20 -11 25
-25 5 -14 13 -25 17 -25 13 0 32 -50 26 -66 -4 -11 2 -14 28 -12 31 3 34 1 32
-23 -1 -17 6 -28 20 -35 20 -8 22 -16 22 -107 0 -93 -1 -98 -20 -93 -15 4 -26
-4 -44 -31 -24 -37 -38 -118 -21 -128 16 -10 70 -12 76 -3 3 5 13 3 22 -4 10
-8 13 -9 9 -1 -4 7 5 18 24 27 40 20 49 20 49 1 0 -8 8 -15 18 -15 25 0 42
-19 42 -47 0 -28 16 -58 52 -98 15 -17 37 -57 48 -89 19 -56 19 -59 1 -93
l-18 -36 -27 36 c-15 19 -41 40 -58 46 -43 15 -45 7 -5 -16 77 -46 77 -137 -1
-216 -23 -23 -42 -46 -42 -50 0 -7 65 -37 80 -37 4 0 12 11 18 24 8 18 16 22
36 19 22 -5 26 -11 26 -42 0 -20 7 -47 16 -59 14 -21 14 -23 -9 -31 -13 -5
-48 -12 -79 -16 -50 -6 -63 -4 -123 25 -66 31 -97 35 -146 15 -15 -5 -15 -2
-6 35 15 53 -6 92 -82 157 -31 27 -71 62 -90 79 l-35 32 30 25 c45 40 40 43
124 -65 25 -32 53 -58 62 -58 21 0 33 39 24 74 -14 57 33 106 113 117 l46 6
-45 2 c-74 2 -112 -25 -166 -114 -9 -16 -12 -14 -32 18 -25 44 -76 77 -116 77
-20 0 -39 -11 -62 -36 -45 -47 -45 -86 -2 -131 32 -33 33 -52 1 -38 -10 5 -24
7 -30 6 -7 -1 -13 3 -13 10 0 9 -3 9 -14 0 -11 -9 -19 -9 -35 1 -23 14 -26 24
-11 33 19 12 11 26 -9 16 -21 -12 -32 -5 -24 15 3 9 -2 14 -16 14 -12 0 -21 6
-21 14 0 8 -14 17 -32 21 -37 8 -68 31 -68 51 0 7 -9 18 -20 24 -16 9 -20 8
-20 -5 0 -8 4 -15 8 -15 4 0 9 -12 10 -27 1 -15 7 -32 12 -37 6 -6 10 -20 10
-33 0 -17 -6 -23 -21 -23 -11 0 -17 -4 -14 -10 3 -5 17 -10 31 -10 30 0 31
-11 3 -29 -18 -11 -23 -11 -30 1 -6 9 -9 5 -9 -14 0 -15 5 -30 10 -33 6 -3 10
-1 10 4 0 6 7 11 15 11 18 0 19 -12 3 -28 -9 -9 -8 -12 5 -12 10 0 17 8 17 19
0 10 7 21 15 25 8 3 15 17 15 31 0 14 7 28 15 32 20 7 55 -24 48 -43 -3 -8 5
-17 21 -24 14 -5 26 -16 26 -23 0 -18 52 -86 66 -87 7 0 23 -6 38 -14 25 -13
25 -13 7 -30 -15 -13 -20 -14 -24 -4 -3 10 -9 10 -24 1 -15 -8 -31 -9 -59 -1
-22 5 -51 12 -66 15 -19 4 -28 12 -28 24 0 11 -4 19 -9 19 -14 0 -32 -26 -23
-34 13 -13 -31 -36 -70 -36 -21 0 -38 -4 -38 -10 0 -5 -7 -10 -15 -10 -8 0
-15 -9 -15 -20 0 -26 -38 -102 -56 -113 -22 -13 -16 -43 16 -77 17 -18 30 -36
30 -41 0 -5 4 -9 8 -9 18 0 32 -54 32 -126 0 -91 16 -162 41 -177 11 -7 19
-17 19 -24 0 -9 -12 -9 -47 2 -64 20 -100 18 -43 -2 29 -9 82 -15 148 -15 119
1 120 1 184 95 21 31 44 57 51 58 7 0 63 4 124 8 101 7 115 11 133 32 48 55
63 126 34 167 -18 26 -111 82 -136 82 -47 0 -24 51 46 100 43 29 48 30 93 20
44 -10 163 -48 172 -56 2 -1 -19 -9 -45 -18 -27 -8 -43 -15 -36 -15 10 -1 7
-9 -7 -30 -28 -39 -28 -98 1 -128 29 -31 105 -33 131 -3 19 22 57 26 74 9 9
-9 21 -6 48 10 25 15 50 20 81 19 49 -3 51 -5 27 -25 -16 -12 -13 -13 27 -7
25 3 53 13 62 21 10 9 24 13 32 10 9 -4 30 -1 47 5 24 8 37 8 50 -1 10 -6 36
-11 57 -11 21 0 61 -7 88 -15 60 -18 152 -11 206 16 43 22 88 25 88 7 0 -20
-12 -31 -60 -57 -25 -13 -52 -30 -60 -37 -12 -12 -11 -14 13 -14 15 0 27 -4
27 -9 0 -5 3 -17 7 -27 4 -11 2 -15 -4 -11 -6 4 -19 -3 -29 -14 -11 -12 -36
-30 -57 -41 -21 -10 -40 -25 -43 -32 -3 -8 -15 -11 -29 -8 -31 6 -84 -40 -68
-60 13 -15 -1 -40 -29 -51 -30 -11 -20 -26 22 -33 22 -4 42 -9 44 -13 8 -12
-23 -42 -51 -50 -36 -10 -36 -32 0 -42 44 -12 59 -29 53 -60 -5 -25 -2 -28 34
-34 44 -7 73 -34 64 -59 -7 -19 -17 -20 -63 -6 -45 13 -27 -4 21 -19 20 -7 42
-19 48 -27 7 -7 19 -14 26 -14 25 0 95 -71 89 -91 -3 -9 -1 -20 5 -24 6 -4 10
-62 10 -153 0 -113 3 -143 12 -134 21 21 28 13 28 -28 0 -32 -5 -43 -30 -61
-33 -25 -30 -44 6 -35 20 5 24 3 24 -18 0 -15 -7 -27 -19 -31 -23 -7 -56 -43
-48 -52 4 -4 21 6 37 22 l30 29 0 -558 c0 -370 -4 -572 -11 -601 -12 -49 -51
-91 -96 -104 -17 -5 -87 -9 -155 -9 -67 0 -607 -3 -1199 -7 -592 -5 -1084 -5
-1093 -2 -15 6 -14 9 5 28 23 23 210 118 273 139 21 7 125 55 229 106 200 98
312 134 416 134 35 0 67 8 101 25 27 14 63 25 80 25 17 0 30 5 31 13 4 54 -2
1281 -7 1289 -3 5 -3 25 0 43 6 32 14 38 109 83 56 27 127 57 157 68 64 21 83
34 52 34 -14 0 -22 6 -22 16 0 9 -12 28 -27 41 -21 20 -33 24 -61 20 -32 -6
-34 -5 -28 18 5 19 2 25 -10 25 -9 0 -21 14 -27 31 -10 26 -16 29 -37 24 -14
-3 -42 -10 -62 -14 -21 -5 -44 -13 -52 -20 -10 -9 -24 -7 -61 9 -47 20 -90 27
-81 12 3 -5 43 -31 89 -60 92 -56 147 -104 147 -129 0 -8 -6 -13 -12 -10 -55
22 -54 23 -30 -10 12 -17 22 -33 22 -36 0 -3 -17 -15 -37 -27 -45 -25 -83 -79
-83 -118 0 -15 -7 -37 -15 -48 -9 -12 -14 -44 -15 -91 0 -55 -3 -73 -14 -73
-19 0 -46 44 -46 74 0 29 -45 86 -68 86 -14 0 -15 -2 -3 -9 21 -13 -4 -41 -32
-38 -13 1 -23 -5 -25 -16 -3 -12 3 -17 21 -17 28 0 52 -23 42 -40 -4 -6 -16
-8 -28 -5 -22 6 -22 6 -2 -10 16 -13 17 -17 6 -24 -7 -5 -10 -14 -6 -21 5 -8
-1 -11 -21 -9 -47 3 -74 0 -74 -11 0 -5 11 -10 25 -10 39 0 30 -15 -27 -45
-43 -23 -68 -29 -133 -31 -80 -4 -153 15 -140 36 3 5 -6 12 -20 16 -29 7 -32
19 -9 28 12 4 15 14 11 34 -4 18 5 50 28 97 32 68 58 181 37 160 -6 -5 -12
-26 -14 -45 -2 -23 -10 -38 -25 -45 -27 -14 -85 -83 -121 -144 -28 -48 -138
-166 -193 -207 -18 -13 -45 -24 -61 -24 -30 0 -138 -76 -138 -97 0 -17 -77
-53 -111 -53 -18 0 -28 -6 -32 -20 -3 -11 -12 -20 -21 -20 -9 0 -26 -9 -38
-20 -15 -14 -36 -20 -67 -20 -58 0 -81 20 -81 74 0 23 -13 81 -28 129 l-28 89
-32 -76 c-31 -72 -62 -215 -62 -281 0 -38 -18 -95 -30 -95 -5 0 -12 5 -15 10
-10 16 -25 2 -25 -23 -1 -31 -39 -75 -49 -58 -5 8 -17 11 -28 7 -24 -8 -36 16
-52 104 -6 30 -13 64 -15 75 -2 11 -4 -8 -5 -41 -1 -56 28 -181 48 -209 8 -10
38 -105 67 -205 32 -113 89 -210 178 -305 47 -49 86 -96 86 -104 0 -17 -18 -2
-133 109 -86 84 -159 192 -194 287 -12 35 -34 85 -47 111 -37 73 -56 181 -63
348 -4 117 -2 170 11 240 22 121 88 313 133 388 49 82 175 238 226 281 182
152 249 196 379 246 48 18 85 35 83 37 -8 8 -123 -31 -201 -69 -92 -43 -224
-138 -299 -213 -28 -28 -86 -98 -130 -156 -44 -57 -100 -119 -125 -138 -39
-30 -44 -39 -46 -76 -2 -72 -16 -160 -29 -186 -7 -14 -16 -48 -20 -75 -12 -96
-16 -105 -46 -120 -21 -11 -35 -13 -47 -6 -29 16 -170 25 -195 14 -12 -6 -58
-15 -102 -21 -44 -6 -115 -23 -158 -37 -73 -25 -105 -26 -91 -3 9 14 -35 0
-65 -21 -58 -41 -47 -76 36 -113 64 -29 258 -68 335 -68 78 0 208 18 222 31 6
5 28 9 49 9 61 0 30 -25 -55 -44 -139 -31 -407 -17 -562 30 -62 19 -82 21 -88
12 -4 -7 -5 -20 -2 -28 11 -28 17 -426 6 -415 -27 28 -73 524 -53 572 7 16 41
48 77 73 36 25 77 54 92 66 15 11 42 29 60 39 33 20 42 35 20 35 -7 0 -20 13
-29 29 -18 31 -166 161 -183 161 -6 0 7 -17 29 -37 22 -19 55 -49 73 -65 18
-17 40 -44 49 -61 15 -30 15 -32 -8 -49 -13 -9 -61 -44 -106 -77 -44 -33 -94
-66 -110 -75 -29 -15 -123 -111 -123 -125 0 -4 9 -16 20 -26 11 -10 20 -23 20
-28 0 -6 7 -18 16 -28 15 -16 20 -63 15 -114 -2 -11 1 -37 4 -58 6 -31 5 -36
-7 -32 -11 4 -19 -3 -26 -24 -6 -17 -17 -31 -25 -31 -8 0 -28 -23 -45 -50 -23
-37 -37 -50 -55 -50 -23 0 -47 -17 -47 -33 0 -5 8 -7 18 -5 16 5 17 2 8 -17
-11 -24 -100 -75 -129 -75 -9 0 -19 -4 -22 -10 -3 -5 -16 -10 -27 -10 -11 0
-36 -9 -54 -21 l-34 -21 -32 27 c-25 21 -38 25 -64 20 -39 -7 -69 17 -80 62
-4 16 -13 33 -20 38 -20 15 -30 164 -15 218 10 34 10 53 1 83 -6 21 -13 62
-16 89 -7 69 -12 81 -26 67 -9 -9 -21 -2 -50 29 -22 23 -42 38 -46 34 -4 -3 5
-16 21 -27 16 -11 27 -29 27 -43 0 -16 7 -25 25 -29 28 -7 34 -26 9 -26 -12 0
-15 -6 -10 -22 20 -74 20 -71 -3 -65 -14 3 -24 0 -28 -9 -3 -8 -11 -14 -19
-14 -20 0 -17 -28 6 -58 l20 -25 -20 -19 c-11 -10 -20 -27 -20 -37 0 -17 -31
-61 -43 -61 -4 0 -4 8 0 18 4 10 -7 4 -28 -16 -65 -62 -121 -102 -142 -102
-41 0 -97 13 -97 22 0 26 -54 90 -90 105 -39 17 -46 29 -41 77 1 14 -4 17 -18
13 -17 -4 -21 2 -27 39 -6 44 9 104 27 104 5 0 9 9 9 20 0 15 -7 20 -25 20
-14 0 -28 -7 -31 -15 -4 -8 -13 -15 -22 -15 -9 0 -26 -10 -40 -22 -22 -21 -24
-22 -33 -5 -10 16 -12 16 -30 -5 -18 -21 -20 -22 -29 -5 -13 20 -33 22 -60 5
-23 -15 -38 -3 -24 19 10 17 17 21 66 45 49 24 163 107 177 129 12 20 7 18
-44 -10 -92 -52 -96 -17 -15 120 41 70 70 102 70 78 0 -7 10 -3 25 11 28 27
33 55 10 64 -9 3 -15 16 -14 28 1 13 1 37 0 53 l-1 30 -16 -30 c-9 -16 -16
-47 -16 -67 -1 -31 -4 -38 -20 -38 -11 0 -31 -9 -45 -20 -20 -16 -29 -18 -40
-9 -11 9 -19 7 -36 -10 -13 -11 -29 -21 -35 -21 -7 0 -33 -11 -60 -25 -26 -13
-72 -31 -103 -40 -31 -8 -65 -24 -75 -34 -26 -24 -64 -44 -71 -37 -3 2 -16 0
-30 -5 -18 -6 -30 -6 -40 2 -10 9 -17 9 -25 1 -11 -11 -65 -5 -84 10 -6 4 -19
6 -27 2 -9 -3 -33 3 -54 14 -43 23 -98 34 -160 32 -27 0 -43 4 -43 11 0 6 -7
9 -15 5 -42 -16 -241 102 -215 128 6 6 -11 35 -45 79 -30 39 -55 75 -55 80 0
6 -6 18 -13 26 -8 9 -24 41 -36 71 -12 30 -26 64 -32 75 -17 37 -18 119 -2
137 9 10 16 42 18 80 12 261 13 270 40 297 14 15 25 31 25 35 0 5 19 47 42 95
57 119 112 191 145 191 7 0 25 8 39 17 35 22 207 26 329 7 50 -8 146 -13 215
-12 69 1 141 -2 160 -7 43 -10 90 -52 90 -81 0 -12 9 -33 20 -47 11 -14 20
-33 20 -44 1 -10 9 -34 18 -53 13 -27 23 -35 44 -35 34 0 106 -60 124 -103 7
-18 14 -50 15 -70 1 -20 9 -45 17 -54 10 -12 12 -29 8 -55 -3 -21 -9 -72 -12
-113 -5 -57 -12 -81 -28 -98 -19 -22 -20 -24 -3 -33 12 -7 15 -17 11 -35 -4
-14 -2 -24 4 -24 13 0 24 16 37 53 6 16 13 27 17 25 10 -5 58 44 52 54 -3 4
-2 18 2 30 6 20 8 20 25 -13 l19 -34 -4 75 c-2 41 -9 110 -17 153 -12 72 -11
78 6 91 18 13 17 14 -7 30 -24 16 -48 55 -48 79 0 7 28 -19 63 -57 l62 -69
110 1 c141 0 239 8 273 20 15 6 83 20 152 32 69 12 148 30 175 40 140 49 202
63 211 48 4 -6 0 -14 -7 -19 -24 -15 -2 -10 63 15 35 13 117 38 183 55 66 18
135 39 153 47 18 8 41 14 52 14 25 0 50 10 50 21 0 12 -37 11 -59 -1 -14 -7
-23 -5 -35 9 -19 21 -15 26 32 36 45 9 41 33 -8 41 -36 6 -40 10 -45 43 -4 20
-11 47 -16 61 -7 16 -7 26 -1 28 14 4 148 92 142 92 -3 0 -41 -11 -84 -25 -92
-29 -90 -29 -83 -11 3 8 -2 16 -14 19 -28 7 -24 42 9 67 15 12 -8 4 -54 -19
-44 -22 -96 -42 -115 -46 -32 -6 -34 -9 -32 -38 1 -18 5 -45 9 -61 5 -23 2
-32 -15 -45 -21 -16 -35 -52 -48 -126 -7 -35 -18 -45 -56 -45 -29 0 -127 -45
-127 -58 0 -8 -80 -34 -118 -38 -13 -2 -51 -12 -85 -23 -143 -48 -206 -63
-274 -67 -45 -3 -73 0 -73 6 0 5 5 10 10 10 6 0 10 7 10 15 0 11 -12 15 -42
16 -24 1 -47 0 -53 -1 -42 -9 -88 -3 -97 14 -5 10 -39 47 -74 83 -41 42 -64
74 -64 88 0 13 -11 30 -25 39 -14 9 -25 24 -25 33 0 9 -7 25 -17 35 -15 16 -5
27 10 11 13 -12 111 -43 139 -43 47 0 40 17 -10 23 -60 7 -137 47 -174 90 -36
42 -35 47 7 47 19 0 35 2 35 4 0 19 -16 36 -34 37 l-21 0 23 16 c12 8 22 22
22 30 0 11 6 13 23 8 12 -4 40 -8 62 -9 34 -1 40 2 40 20 0 11 6 28 14 37 17
22 14 21 -33 -3 -21 -10 -72 -27 -112 -36 -41 -9 -77 -20 -80 -25 -7 -12 -44
-11 -44 1 0 13 -33 13 -46 0 -7 -7 -22 -6 -47 5 -38 16 -114 18 -123 3 -3 -4
-16 -8 -29 -8 -13 0 -27 -4 -30 -10 -3 -5 -23 -10 -44 -10 -21 0 -41 -3 -45
-7 -17 -17 -318 -18 -349 -1 -16 8 -23 7 -32 -6 -15 -20 -25 -21 -25 -1 0 8
-4 15 -10 15 -5 0 -7 -6 -4 -14 3 -8 1 -17 -4 -20 -10 -6 -41 23 -40 39 0 6
-28 15 -63 21 -35 6 -74 14 -86 18 -13 4 -23 3 -23 -2 0 -20 153 -81 210 -84
8 0 21 -5 28 -11 25 -20 11 -28 -42 -23 -45 4 -54 2 -49 -10 7 -19 0 -18 -61
10 -29 14 -56 31 -59 40 -6 16 -66 51 -74 43 -2 -3 -16 6 -30 19 -25 23 -25
26 -10 41 15 15 14 18 -9 40 -14 13 -53 38 -87 55 -34 17 -66 36 -72 43 -5 6
-26 22 -45 35 -51 35 -87 72 -92 95 -2 12 -10 19 -21 17 -9 -1 -27 4 -40 12
-21 15 -23 14 -25 -8 -1 -19 4 -25 29 -30 17 -3 36 -3 43 1 8 4 8 2 -1 -7 -6
-7 -9 -19 -6 -28 4 -10 1 -13 -8 -10 -8 3 -24 1 -36 -3 -24 -9 -27 -3 -23 35
1 12 -3 16 -10 11 -9 -5 -10 -1 -5 16 5 18 4 20 -4 9 -8 -12 -14 -11 -37 10
l-27 25 6 -24 c3 -14 2 -31 -4 -37 -15 -19 -7 -59 12 -59 9 0 36 -17 59 -38
47 -41 57 -45 62 -21 2 11 33 -23 85 -92 45 -60 89 -116 98 -125 8 -9 15 -19
15 -22 0 -4 -33 -7 -74 -7 -41 0 -78 -4 -81 -10 -4 -6 9 -10 32 -10 79 0 82
-31 6 -50 -27 -6 -59 -17 -72 -24 l-24 -13 22 -13 c22 -11 22 -12 4 -25 -23
-18 -61 -18 -93 0 -32 18 -84 19 -99 1 -15 -18 -81 -11 -136 14 -47 22 -95 31
-95 18 0 -5 12 -19 27 -32 18 -15 23 -25 15 -30 -7 -4 -12 -1 -12 10 0 10 -3
14 -7 11 -3 -4 -17 3 -30 15 -16 15 -20 25 -12 34 7 8 6 14 -2 19 -6 4 -14 2
-18 -4 -10 -15 -41 -3 -41 16 0 23 -42 60 -75 66 l-30 5 25 -22 c14 -12 36
-37 48 -56 23 -34 136 -120 158 -120 5 0 26 -16 45 -36 23 -24 40 -33 54 -30
10 3 62 -8 115 -24 52 -15 112 -31 133 -35 20 -3 37 -10 37 -15 0 -4 18 -6 40
-3 35 5 40 3 40 -13 0 -11 -11 -35 -23 -54 -13 -19 -22 -40 -20 -47 2 -6 -5
-29 -16 -51 -27 -52 -51 -122 -51 -147 0 -11 -11 -43 -24 -70 -25 -55 -34
-155 -16 -196 10 -23 10 -23 5 4 -3 15 -2 27 2 27 12 0 33 51 33 80 0 14 6 35
14 46 14 18 15 18 19 -6 5 -24 26 -228 27 -260 2 -70 10 -104 38 -158 18 -35
31 -68 30 -75 -2 -7 22 -37 53 -67 30 -30 71 -80 91 -110 19 -30 42 -61 51
-69 10 -7 17 -19 17 -25 0 -6 16 -28 35 -49 19 -21 35 -42 35 -48 0 -5 6 -9
13 -9 6 0 42 -29 80 -63 50 -48 67 -70 67 -90 0 -29 -18 -35 -38 -15 -9 9 -12
6 -12 -14 0 -15 5 -30 10 -33 6 -3 10 -10 10 -16 0 -16 -38 14 -44 34 -6 26
-28 11 -24 -16 4 -30 -34 -30 -47 1 -11 25 -23 28 -31 8 -3 -8 -12 -12 -19
-10 -7 3 -16 1 -20 -5 -3 -6 -15 -11 -26 -11 -10 0 -19 -6 -19 -14 0 -19 -48
-56 -72 -56 -10 0 -28 -9 -40 -20 -29 -27 -95 -24 -125 4 -13 12 -23 25 -23
30 0 5 -16 24 -35 42 -35 32 -35 32 -35 7 0 -17 -5 -23 -17 -21 -13 2 -17 -3
-16 -19 3 -26 -18 -31 -37 -8 -7 9 -9 23 -4 37 4 13 7 26 6 31 -1 4 3 7 10 7
6 0 4 6 -6 13 -17 12 -16 15 8 44 33 39 33 45 -1 37 -45 -12 -77 -10 -94 4
-15 11 -19 10 -33 -9 -8 -13 -18 -20 -22 -17 -10 11 7 48 22 48 8 0 14 7 14
16 0 10 -6 14 -15 10 -23 -8 -18 21 10 71 19 32 32 43 50 43 27 0 29 3 39 42
6 25 4 28 -19 28 -35 0 -106 -41 -100 -58 3 -7 -7 -29 -21 -47 -22 -29 -42
-81 -61 -162 -3 -14 -1 -23 6 -23 6 0 11 -15 11 -33 0 -18 13 -69 29 -114 22
-60 28 -88 22 -109 -4 -16 -3 -42 2 -57 5 -16 6 -32 1 -37 -5 -4 -40 -13 -79
-20 -90 -15 -86 -15 -119 -6 -26 6 -28 5 -17 -8 7 -8 22 -16 34 -18 24 -3 42
-54 27 -73 -12 -15 15 -41 52 -50 21 -5 26 -3 25 11 -3 27 80 39 165 24 77
-13 98 -30 41 -31 -21 0 -47 -4 -58 -9 l-20 -9 20 -1 c11 -1 79 -5 150 -9 72
-4 138 -11 148 -16 15 -6 17 -4 12 18 -6 24 -4 27 37 37 27 7 47 19 53 32 6
11 30 31 55 44 25 13 50 27 55 31 40 33 120 77 203 113 53 23 105 51 114 61
20 24 45 105 53 179 4 30 13 90 21 134 8 43 14 100 14 127 0 46 11 62 25 39 4
-6 17 -2 34 11 27 19 61 18 61 -3 0 -6 6 -5 15 2 12 10 18 10 30 0 14 -12 39
-5 31 9 -3 4 13 8 35 9 33 2 40 -1 35 -13 -5 -13 -2 -14 15 -4 12 6 25 7 29 2
14 -15 17 -105 8 -258 -14 -222 0 -253 115 -258 51 -3 72 -9 89 -24 34 -31
155 -113 167 -113 12 0 41 -40 41 -57 0 -8 -13 -13 -35 -13 -19 0 -35 -5 -35
-10 0 -6 11 -8 25 -4 14 3 25 2 25 -2 0 -18 -16 -32 -57 -53 -53 -26 -55 -35
-6 -26 32 6 35 5 24 -8 -6 -8 -24 -18 -38 -22 -33 -8 -73 -44 -73 -67 0 -9 -6
-19 -12 -21 -31 -13 35 -5 122 14 66 14 143 21 255 24 88 2 174 8 190 13 l30
8 -33 7 c-18 4 -31 11 -28 15 6 10 151 24 266 27 41 1 92 7 112 14 21 7 42 10
47 6 17 -10 63 6 57 21 -3 7 2 18 11 25 13 11 17 10 28 -4 14 -19 23 -16 156
47 30 14 98 37 152 51 93 25 103 26 195 15 116 -13 141 -16 252 -36 100 -17
275 -41 413 -55 81 -8 107 -7 152 5 73 22 148 21 167 -1 25 -29 26 -47 4 -60
-21 -12 -21 -12 4 -13 15 0 45 -19 74 -46 47 -43 48 -46 35 -70 -7 -14 -12
-36 -11 -49 2 -22 -2 -24 -83 -30 -78 -7 -100 -5 -152 10 -10 4 2 -4 27 -17
l45 -23 -100 -6 c-133 -9 -6889 -9 -6984 -1 l-74 7 -28 54 c-16 30 -29 58 -29
62 0 5 -15 31 -33 58 -25 40 -41 52 -74 62 -23 6 -58 27 -77 46 -30 30 -34 40
-29 67 9 48 30 83 68 113 36 29 44 43 23 43 -19 0 -70 -51 -92 -92 -11 -20
-34 -42 -53 -50 -32 -15 -33 -15 -33 7 0 12 13 41 29 66 64 95 194 199 339
270 45 22 82 44 82 48 0 5 11 11 25 13 14 3 25 2 25 -2 0 -3 46 -7 103 -8 69
-1 115 -6 141 -17 35 -15 39 -15 51 2 11 14 10 21 -3 41 -13 19 -14 48 -8 185
3 89 9 281 12 427 3 146 7 275 10 288 2 12 19 31 36 42 l32 19 -39 -5 c-58 -9
-82 -27 -90 -71 l-7 -37 -19 39 c-10 22 -19 54 -19 70 0 17 -7 41 -15 55 -8
14 -14 34 -15 46 0 11 -9 29 -21 40 -23 21 -54 74 -51 87 1 4 -4 18 -13 30 -8
12 -15 29 -15 38 0 9 -9 28 -20 42 -11 14 -20 37 -20 51 0 14 -9 35 -21 47
-16 16 -20 31 -18 77 1 31 -2 74 -6 95 -7 36 -6 38 23 49 41 16 48 36 17 50
-41 18 -25 34 80 80 71 31 29 36 -70 9 -41 -12 -83 -21 -93 -21 -9 0 -39 -21
-67 -46 -35 -32 -55 -44 -70 -40 -14 3 -25 -1 -33 -14 -10 -16 -6 -25 23 -62
139 -175 257 -379 304 -528 70 -220 67 -570 -7 -804 -24 -79 -46 -129 -64
-148 -14 -16 -29 -34 -32 -41 -4 -6 -3 -1 0 13 22 90 35 142 50 190 11 40 17
111 20 259 4 225 -7 323 -50 441 -24 69 -83 180 -94 180 -7 0 -22 -37 -78
-195 -25 -69 -38 -89 -99 -151 -54 -55 -82 -75 -123 -88 -53 -18 -61 -36 -16
-36 14 0 41 7 61 15 19 8 39 15 43 15 5 0 16 -22 25 -49 22 -67 60 -98 98 -79
14 7 17 23 17 103 0 83 -2 96 -20 108 -15 10 -18 20 -13 34 13 33 77 111 100
122 18 8 23 6 31 -17 13 -34 13 -82 -1 -82 -6 0 -7 -17 -4 -45 4 -24 3 -47 -2
-49 -5 -3 -9 -34 -10 -68 -2 -104 -7 -167 -11 -171 -3 -2 -19 -13 -35 -24 -37
-25 -79 -105 -73 -138 3 -15 1 -22 -7 -18 -14 5 -55 -47 -55 -69 0 -23 -39
-73 -62 -78 -12 -3 -25 -16 -28 -28 -3 -13 -16 -28 -30 -35 -14 -7 -31 -25
-38 -39 -12 -26 -47 -46 -59 -34 -4 3 -12 1 -20 -5 -21 -18 -43 8 -43 52 0 27
-5 41 -18 48 -10 5 -24 21 -32 35 -7 14 -21 26 -30 26 -10 0 -23 7 -30 16 -26
30 -83 46 -172 47 -48 0 -91 -3 -95 -6 -8 -9 -73 -9 -73 0 0 3 8 15 18 26 16
19 16 20 -9 15 -18 -3 -30 1 -38 13 -6 11 -17 16 -26 13 -15 -6 -21 15 -17 56
12 110 16 116 140 186 48 27 113 73 145 102 l59 54 69 -4 c77 -3 85 8 20 30
-38 13 -47 12 -86 -3 -24 -9 -60 -27 -79 -40 -35 -24 -69 -43 -196 -113 -36
-19 -98 -62 -138 -94 -67 -54 -77 -59 -108 -54 -34 7 -68 41 -57 59 3 5 -3 6
-14 3 -26 -8 -42 15 -78 114 -17 49 -27 95 -27 133 0 53 3 62 33 93 18 18 30
36 27 39 -12 12 -39 -9 -63 -51 -33 -56 -57 -56 -66 1 -4 22 -13 74 -20 115
-20 107 -20 597 0 609 7 5 33 11 57 15 62 8 103 32 119 69 14 33 63 84 128
131 35 25 37 30 32 64 -4 20 -13 56 -21 80 -9 23 -14 47 -12 52 2 6 39 12 83
15 44 2 92 8 107 14 15 6 35 8 45 4 9 -4 14 -2 10 3 -3 5 6 14 19 21 13 6 24
10 24 9 0 -2 -5 -18 -12 -36 -9 -29 -9 -35 7 -47 16 -11 9 -13 -58 -13 -50 0
-77 -4 -77 -11 0 -6 6 -9 13 -6 15 5 112 -8 202 -28 132 -30 133 -30 167 1 47
44 148 201 148 229 0 18 -65 65 -89 65 -12 0 -21 6 -21 16 0 8 -19 24 -44 35
-31 13 -46 26 -48 42 -3 21 -4 21 -29 -7 -30 -32 -45 -22 -29 19 13 34 13 90
-1 140 -11 40 -53 105 -68 105 -13 0 -20 -39 -9 -46 7 -4 4 -10 -6 -16 -18
-10 -22 -34 -6 -40 14 -4 1 -68 -14 -68 -6 0 -22 -20 -35 -45 -14 -26 -35 -50
-52 -57 -19 -8 -27 -18 -24 -28 11 -35 -99 -110 -160 -110 -44 0 -109 20 -127
38 -7 7 -17 12 -23 12 -14 0 -145 145 -145 160 0 7 12 26 26 43 22 27 25 36
19 79 -5 36 -4 49 7 52 42 13 52 19 41 23 -23 8 -14 33 12 33 13 0 32 8 42 19
20 21 132 75 178 86 l30 7 -34 14 c-19 8 -67 14 -112 14 -64 0 -93 -6 -156
-31 -43 -17 -82 -35 -87 -40 -16 -15 -26 -11 -26 10 0 26 96 86 162 101 58 14
224 8 286 -11 23 -7 45 -9 48 -6 4 3 -3 21 -14 38 l-20 33 22 17 c13 10 42 23
65 28 24 5 44 11 45 13 1 1 13 20 25 41 12 20 28 37 36 37 7 0 18 7 26 16 11
13 10 19 0 37 -10 15 -11 22 -2 25 6 2 11 15 11 28 0 13 5 32 11 42 9 14 8 26
-6 51 -12 24 -14 36 -6 44 6 6 11 26 11 44 0 19 7 45 16 59 9 14 19 41 21 61
2 20 13 48 23 63 11 15 24 40 30 55 9 24 7 30 -10 42 -33 23 -22 93 23 142 50
54 98 81 146 81 25 0 61 4 79 9 18 6 99 13 180 16 152 6 188 12 307 50 98 32
158 56 280 115 58 28 120 52 138 52 26 0 106 35 317 137 40 20 116 64 120 71
6 9 52 35 65 36 6 0 17 4 25 7 8 3 31 8 51 11 21 4 43 14 50 23 13 15 11 16
-13 9 -21 -5 -28 -3 -28 8 0 14 63 32 79 22 16 -10 39 29 46 77 6 39 5 47 -9
47 -21 0 -21 29 0 37 19 7 34 -13 34 -45 0 -34 20 -22 35 21 12 36 12 37 -11
37 -22 0 -23 2 -12 23 18 30 29 37 53 31 16 -4 26 4 43 35 13 22 31 43 42 46
11 4 20 11 20 16 0 5 5 9 10 9 6 0 10 -7 10 -15 0 -8 4 -15 9 -15 5 0 8 15 7
33 -1 25 3 32 17 31 9 -1 17 2 17 7 0 5 6 9 14 9 8 0 22 10 30 22 22 31 100
90 173 132 36 20 93 67 134 110 81 86 154 138 219 157 25 7 68 27 95 44 28 17
66 37 85 45 19 7 43 20 52 28 10 8 37 25 60 38 119 63 202 104 214 104 6 0 36
11 65 24 29 14 93 31 143 40 155 25 207 34 316 56 153 30 644 31 698 1 8 -5
30 -4 49 1 19 5 67 7 107 4 58 -4 77 -2 86 9 22 27 40 18 40 -20 0 -30 -4 -35
-27 -41 -103 -23 -164 -65 -207 -144 -23 -42 -26 -54 -15 -61 12 -8 12 -11 -1
-19 -13 -9 -13 -11 0 -20 8 -5 22 -10 32 -10 20 0 24 -43 27 -310 1 -102 6
-203 12 -225 15 -56 51 -99 102 -124 42 -20 57 -21 454 -21 410 0 410 0 454
23 24 13 57 43 74 66 l30 43 6 189 c4 105 9 192 12 195 3 3 15 0 27 -6 12 -7
31 -10 41 -7 10 3 22 1 25 -4 3 -5 15 -2 27 6 14 10 45 15 92 15 38 0 66 4 60
8 -5 4 -11 24 -12 45 -1 31 2 37 18 37 11 0 28 5 39 12 16 10 24 9 47 -8 25
-18 31 -19 56 -6 15 7 27 20 27 28 0 11 4 12 19 4 30 -15 88 -13 95 5 3 8 12
15 21 15 32 0 10 25 -50 56 -36 19 -40 23 -37 55 2 19 8 39 12 44 10 12 -1 69
-18 102 -7 12 -12 31 -12 42 0 31 36 27 55 -6 8 -16 30 -46 49 -68 l35 -40 9
24 c7 21 4 29 -23 53 -18 15 -38 28 -44 28 -6 0 -11 2 -11 4 0 2 -3 11 -6 19
-4 12 3 13 48 6 85 -15 130 -31 185 -70 38 -26 60 -35 78 -31 20 3 24 9 19 21
-3 9 -9 26 -11 39 -3 12 -9 25 -14 28 -19 11 -9 25 10 14 26 -13 34 -13 24 3
-4 7 3 5 17 -4 18 -12 30 -13 41 -6 11 7 26 5 52 -8 36 -17 74 -14 63 4 -3 5
6 12 20 15 15 4 40 20 56 37 39 38 95 40 163 4z m-2059 -59 c-15 -24 -23 -26
-81 -26 l-65 0 16 25 c13 20 25 25 58 25 22 0 48 5 56 10 25 15 35 -6 16 -34z
m-386 -166 c0 -5 -2 -10 -4 -10 -3 0 -8 5 -11 10 -3 6 -1 10 4 10 6 0 11 -4
11 -10z m383 -302 c9 -11 17 -24 17 -28 0 -16 -34 -20 -50 -5 -21 19 -44 19
-60 0 -10 -13 -7 -17 23 -30 20 -8 41 -15 46 -15 13 0 51 -50 51 -67 0 -8 -11
-25 -25 -38 -35 -36 -106 -35 -141 0 -14 14 -24 31 -21 38 6 20 35 19 56 -2
25 -25 40 -26 67 -7 18 14 16 16 -31 36 -88 38 -108 75 -62 117 40 38 98 38
130 1z m95 -21 c2 -18 9 -27 21 -27 10 0 20 -3 24 -6 11 -11 -5 -34 -23 -34
-25 0 -31 -12 -24 -49 5 -21 12 -31 25 -31 11 0 19 7 19 15 0 8 9 20 19 27 18
11 18 13 4 23 -41 30 40 70 93 46 28 -12 48 -55 40 -87 -4 -15 0 -24 11 -28
14 -6 15 1 10 58 l-6 65 61 -2 c63 -1 69 2 82 46 9 30 36 20 36 -13 0 -25 4
-30 23 -30 13 0 26 -3 30 -6 12 -12 -6 -34 -29 -34 -21 0 -24 -4 -24 -40 0
-36 3 -40 24 -40 14 0 28 -5 32 -11 10 -16 -11 -31 -42 -31 -35 0 -64 34 -64
76 0 28 -3 31 -32 31 -33 0 -33 -1 -36 -53 -3 -52 -3 -53 -35 -52 -55 0 -71 0
-97 -1 -26 -1 -37 -1 -80 1 -14 1 -37 0 -52 -1 -43 -2 -58 17 -58 72 0 37 -4
49 -15 49 -8 0 -15 7 -15 15 0 9 7 18 15 21 8 4 15 16 15 28 0 46 43 48 48 3z
m-3168 -631 c0 -17 -14 -29 -23 -20 -8 8 3 34 14 34 5 0 9 -6 9 -14z m7875
-786 c-3 -5 -11 -10 -16 -10 -6 0 -7 5 -4 10 3 6 11 10 16 10 6 0 7 -4 4 -10z
m255 -174 c0 -8 -5 -18 -11 -22 -14 -8 -33 11 -25 25 10 16 36 13 36 -3z m270
-301 c14 -16 5 -51 -14 -58 -8 -3 -22 0 -32 8 -16 11 -16 17 -6 39 13 29 33
33 52 11z m74 -460 c3 -8 1 -26 -4 -40 -7 -20 -17 -25 -45 -26 -19 -1 -40 -2
-46 -3 -6 -1 -19 10 -27 24 -11 18 -12 21 -2 13 20 -18 70 -16 75 2 3 8 7 22
10 30 6 19 31 19 39 0z m-10394 -169 c0 -3 -4 -8 -10 -11 -5 -3 -10 -1 -10 4
0 6 5 11 10 11 6 0 10 -2 10 -4z m9716 -258 c-1 -25 3 -33 19 -36 44 -7 47
-10 34 -34 -6 -13 -13 -25 -15 -27 -4 -5 -74 68 -74 76 0 4 33 52 36 53 1 0 1
-14 0 -32z m-5742 -67 c-6 -6 -24 19 -24 34 1 6 7 1 15 -9 8 -11 12 -22 9 -25z
m5686 -90 c0 -6 -4 -13 -10 -16 -5 -3 -10 1 -10 9 0 9 5 16 10 16 6 0 10 -4
10 -9z m-63 -44 c50 -32 77 -78 75 -129 -1 -21 1 -38 4 -38 4 0 28 8 55 17 52
19 70 13 51 -17 -10 -17 -10 -20 3 -20 8 0 15 7 15 15 0 8 9 15 20 15 20 0 80
-26 80 -34 0 -3 3 -11 6 -20 4 -11 1 -16 -11 -16 -12 0 -15 -5 -10 -20 3 -11
3 -29 0 -41 -6 -18 -13 -20 -43 -16 -50 6 -112 31 -123 48 -5 8 -9 24 -9 35 0
31 -85 63 -118 45 -24 -13 -65 -3 -58 15 7 19 -21 44 -50 44 -27 0 -43 25 -26
42 6 6 8 16 6 23 -3 7 6 15 20 19 33 8 33 20 1 34 -14 6 -25 17 -25 23 0 21
92 4 137 -24z m-5382 -7 c3 -5 1 -10 -4 -10 -6 0 -11 5 -11 10 0 6 2 10 4 10
3 0 8 -4 11 -10z m-4626 -69 c30 -70 27 -92 -15 -120 -19 -14 -60 -52 -90 -86
-44 -51 -61 -63 -92 -68 -20 -3 -45 -8 -56 -12 -14 -6 -17 -4 -15 10 2 10 16
22 31 26 14 4 45 22 67 39 40 33 45 56 10 47 -11 -3 -19 -1 -19 4 0 5 7 9 15
9 8 0 15 5 15 11 0 8 -11 9 -32 4 -18 -4 -46 -8 -63 -9 -25 -1 -30 3 -30 23 0
23 7 27 100 48 55 13 112 22 127 19 36 -7 41 4 23 54 -18 50 -18 50 -6 50 5 0
18 -22 30 -49z m4680 -53 c5 -13 7 -25 4 -28 -5 -6 -33 30 -33 42 0 17 21 7
29 -14z m798 -113 c2 -1 -3 -10 -11 -20 -11 -15 -27 -19 -77 -19 -55 0 -68 4
-92 26 l-28 26 103 -5 c57 -3 104 -7 105 -8z m1863 -58 c0 -2 -11 -17 -25 -33
-14 -16 -25 -24 -25 -18 0 5 9 20 20 32 19 20 30 27 30 19z m-3150 -93 c22 -9
40 -20 40 -25 0 -5 -2 -9 -5 -9 -10 0 -85 40 -85 45 0 8 7 6 50 -11z m77 -10
c-3 -3 -12 -4 -19 -1 -8 3 -5 6 6 6 11 1 17 -2 13 -5z m3068 -84 c7 -11 -35
-31 -48 -23 -5 3 0 11 10 19 22 16 30 17 38 4z m-2798 -302 c-3 -8 -6 -5 -6 6
-1 11 2 17 5 13 3 -3 4 -12 1 -19z m-3387 -152 c0 -3 -4 -8 -10 -11 -5 -3 -10
-1 -10 4 0 6 5 11 10 11 6 0 10 -2 10 -4z m115 -476 c9 -14 -33 -80 -51 -80
-21 0 -17 47 6 70 22 22 36 25 45 10z m8115 -49 c14 -4 25 -12 25 -19 0 -7 5
-16 11 -20 6 -4 13 -15 17 -24 5 -13 17 -18 47 -18 25 0 40 -5 41 -12 0 -7 1
-55 1 -107 1 -85 -2 -96 -20 -112 -19 -15 -20 -18 -7 -29 17 -15 20 -30 4 -30
-11 0 -67 -56 -106 -108 -33 -41 -107 -76 -134 -61 -10 5 -19 16 -19 23 0 24
-81 63 -145 71 -33 5 -69 14 -81 21 -11 8 -24 11 -27 8 -4 -4 -10 2 -14 12 -3
10 -11 22 -17 26 -8 5 -7 13 2 28 15 25 16 57 1 66 -7 4 11 19 41 37 29 17 55
37 57 46 4 17 73 44 73 29 0 -5 9 -4 21 3 12 6 29 9 40 6 10 -3 26 2 36 10 17
13 16 14 -9 8 -22 -4 -28 -2 -28 11 0 10 -5 14 -15 10 -12 -4 -13 -2 -3 14 7
11 21 20 33 22 11 2 20 8 20 13 1 24 29 58 58 70 35 15 58 17 97 6z m421 -16
c42 -15 89 -50 89 -67 0 -16 -23 -7 -74 29 -84 60 -85 62 -15 38z m-5051 -128
c0 -5 -7 -4 -15 3 -8 7 -15 20 -15 29 1 13 3 13 15 -3 8 -11 15 -24 15 -29z
m845 -76 c-16 -14 -55 -23 -55 -13 0 12 17 20 45 21 11 1 15 -3 10 -8z m3014
-55 c8 -10 8 -16 -3 -25 -11 -9 -13 -7 -13 14 0 29 1 30 16 11z m111 -61 c-25
-27 -60 -34 -60 -12 0 22 22 37 54 37 l29 0 -23 -25z m-8861 -91 c37 -22 111
-85 170 -145 59 -58 120 -115 136 -127 171 -125 235 -175 248 -194 8 -13 38
-47 66 -76 28 -29 51 -56 51 -61 0 -16 71 -54 118 -63 25 -4 66 -18 91 -30 26
-12 60 -23 76 -24 39 -1 87 -32 83 -53 -3 -19 39 -77 49 -68 3 4 0 13 -7 22
-17 20 -7 29 17 17 29 -16 77 -71 69 -79 -4 -5 -270 -8 -591 -7 -562 1 -584 2
-621 21 -26 13 -46 35 -61 64 -22 43 -23 53 -27 455 -3 227 -2 415 1 418 4 3
20 -2 37 -13 17 -10 60 -36 95 -57z m7642 9 c11 -12 13 -48 11 -146 -2 -127
-5 -147 -18 -134 -13 12 -44 183 -44 240 0 49 3 57 19 57 10 0 25 -7 32 -17z
m1106 -45 c-3 -8 -6 -5 -6 6 -1 11 2 17 5 13 3 -3 4 -12 1 -19z m-2049 -40
c-13 -24 -30 -39 -36 -34 -7 8 22 56 35 56 11 0 11 -4 1 -22z m675 -103 c-3
-9 -8 -14 -10 -11 -3 3 -2 9 2 15 9 16 15 13 8 -4z m1287 -5 c0 -5 -5 -10 -11
-10 -5 0 -7 5 -4 10 3 6 8 10 11 10 2 0 4 -4 4 -10z m-4080 -40 c0 -5 -5 -10
-11 -10 -5 0 -7 5 -4 10 3 6 8 10 11 10 2 0 4 -4 4 -10z m4085 -2 c11 -36 15
-108 6 -108 -11 0 -17 17 -26 78 -5 28 -3 42 4 42 7 0 13 -6 16 -12z m-2022
-136 l-6 -73 -65 -30 c-35 -17 -68 -27 -73 -22 -14 14 8 84 38 117 112 125
114 125 106 8z m73 -20 c4 -32 4 -55 1 -51 -12 10 -38 129 -31 141 10 16 23
-21 30 -90z m37 -161 c10 -17 14 -31 9 -31 -14 0 -39 32 -52 65 -10 28 -10 28
7 13 10 -9 26 -30 36 -47z m81 38 c-9 -15 -34 -10 -28 5 3 8 12 12 20 9 8 -3
11 -9 8 -14z m-2529 -29 c3 -5 13 -6 22 -3 11 4 14 2 11 -8 -5 -16 -98 -26
-98 -10 0 22 54 40 65 21z"/>
<path d="M3815 7955 c-31 -30 -34 -93 -6 -119 41 -37 138 -28 161 15 17 31 12
87 -10 109 -31 31 -113 28 -145 -5z"/>
<path d="M3821 7574 c-31 -26 -40 -57 -20 -70 47 -29 162 -19 194 16 25 28 7
44 -70 64 -79 20 -68 21 -104 -10z"/>
<path d="M7631 7949 c-31 -29 -41 -61 -41 -125 0 -49 4 -59 30 -86 27 -26 36
-30 68 -25 22 4 46 17 60 32 19 23 22 37 22 110 0 75 -2 85 -22 99 -32 23 -90
20 -117 -5z"/>
<path d="M9657 7959 c-28 -16 -57 -88 -57 -142 0 -40 5 -53 29 -78 35 -34 54
-36 99 -9 41 25 62 73 62 143 0 43 -5 58 -23 75 -25 24 -79 29 -110 11z"/>
<path d="M6769 7951 c-48 -49 -40 -61 42 -61 78 0 109 11 109 40 0 27 -38 50
-83 50 -29 0 -46 -7 -68 -29z"/>
<path d="M3395 7970 c-27 -10 -41 -28 -49 -64 -13 -55 49 -105 117 -92 43 8
66 33 74 79 10 66 -66 108 -142 77z"/>
<path d="M3361 7576 c-30 -32 -24 -57 19 -79 27 -14 48 -17 89 -12 68 7 91 20
91 50 0 31 -8 35 -84 46 -35 4 -70 11 -78 14 -7 3 -24 -5 -37 -19z"/>
<path d="M4478 7964 c-24 -13 -48 -42 -48 -58 0 -3 45 -6 100 -6 111 0 124 9
74 55 -31 29 -83 33 -126 9z"/>
<path d="M5711 7954 c-17 -14 -31 -34 -31 -45 0 -17 8 -19 71 -19 101 0 141
28 99 70 -30 30 -100 27 -139 -6z"/>
<path d="M8285 7949 c-14 -17 -24 -37 -22 -43 6 -18 135 -20 163 -1 50 32 11
75 -67 75 -41 0 -51 -4 -74 -31z"/>
<path d="M10114 7946 c-19 -19 -34 -39 -34 -45 0 -18 155 -14 174 5 21 21 20
29 -6 54 -36 33 -93 27 -134 -14z"/>
<path d="M7570 6490 c0 -5 7 -10 16 -10 8 0 12 5 9 10 -3 6 -10 10 -16 10 -5
0 -9 -4 -9 -10z"/>
<path d="M7380 6316 c0 -15 -3 -16 -15 -6 -9 8 -15 8 -15 2 0 -6 -3 -17 -6
-26 -5 -13 1 -16 30 -16 39 0 45 12 21 44 -14 19 -15 19 -15 2z"/>
<path d="M7425 6230 c3 -5 8 -10 11 -10 2 0 4 5 4 10 0 6 -5 10 -11 10 -5 0
-7 -4 -4 -10z"/>
<path d="M8196 6155 c-3 -9 -6 -22 -5 -28 0 -7 5 -1 10 12 5 13 8 26 5 28 -2
2 -6 -3 -10 -12z"/>
<path d="M3276 5761 c-4 -7 -5 -15 -2 -18 9 -9 19 4 14 18 -4 11 -6 11 -12 0z"/>
<path d="M10515 5440 c-11 -18 6 -30 42 -30 l36 0 -26 20 c-28 22 -43 25 -52
10z"/>
<path d="M8810 5416 c0 -25 69 -151 106 -191 19 -22 51 -63 69 -91 55 -80 278
-280 360 -322 79 -40 145 -57 145 -37 0 7 -33 23 -72 36 -55 18 -88 37 -133
77 -33 29 -91 79 -130 112 -38 33 -81 76 -95 96 -43 61 -121 154 -130 154 -10
0 -80 113 -80 129 0 8 6 8 20 -1 32 -21 37 2 5 28 -33 26 -65 32 -65 10z"/>
<path d="M3399 5393 c-13 -17 -13 -17 6 -3 11 8 22 16 24 17 2 2 0 3 -6 3 -6
0 -17 -8 -24 -17z"/>
<path d="M3252 5315 c-15 -33 0 -40 27 -11 19 21 20 24 6 30 -22 8 -20 9 -33
-19z"/>
<path d="M6135 5274 c-22 -8 -46 -21 -54 -29 -13 -13 -11 -14 16 -12 17 1 29
5 27 9 -2 4 4 9 15 13 11 3 25 12 31 20 15 18 16 18 -35 -1z"/>
<path d="M6238 5237 c-31 -12 -35 -22 -13 -31 21 -8 75 13 75 30 0 16 -23 17
-62 1z"/>
<path d="M6390 5240 c-9 -6 -10 -10 -3 -10 6 0 15 5 18 10 8 12 4 12 -15 0z"/>
<path d="M5950 5218 c-16 -7 -20 -12 -12 -15 8 -3 21 2 30 11 19 18 17 19 -18
4z"/>
<path d="M5890 5172 c-39 -47 -41 -54 -5 -22 22 19 42 36 44 38 2 1 -2 2 -10
2 -8 0 -21 -8 -29 -18z"/>
<path d="M6658 5163 c6 -2 18 -2 25 0 6 3 1 5 -13 5 -14 0 -19 -2 -12 -5z"/>
<path d="M5730 5112 c-58 -38 -91 -64 -86 -69 5 -5 126 74 126 82 0 9 -15 4
-40 -13z"/>
<path d="M6733 5089 c10 -6 34 -8 52 -5 25 5 36 3 43 -9 11 -21 63 -10 55 11
-4 10 -26 14 -87 14 -62 -1 -77 -3 -63 -11z"/>
<path d="M6987 5032 c-18 -19 -24 -82 -8 -82 16 0 28 25 29 63 2 43 1 43 -21
19z"/>
<path d="M5580 5019 c0 -5 5 -7 10 -4 6 3 10 8 10 11 0 2 -4 4 -10 4 -5 0 -10
-5 -10 -11z"/>
<path d="M7039 4955 c-38 -25 -54 -50 -39 -60 14 -9 38 6 64 40 41 53 32 60
-25 20z"/>
<path d="M5440 4935 c-25 -19 -50 -35 -57 -35 -14 0 -56 -51 -48 -58 3 -3 18
6 33 19 15 14 43 36 63 49 20 13 42 32 48 42 14 23 14 23 -39 -17z"/>
<path d="M7088 4929 c-19 -33 -24 -69 -9 -69 5 0 11 8 14 18 3 9 10 32 15 50
13 41 2 41 -20 1z"/>
<path d="M7268 4774 c-10 -9 -9 -160 1 -194 12 -43 16 -1 11 103 -3 55 -8 95
-12 91z"/>
<path d="M9275 4755 c16 -13 31 -22 34 -20 5 6 -41 44 -54 44 -5 0 3 -11 20
-24z"/>
<path d="M5204 4734 c-10 -22 -20 -42 -22 -46 -2 -5 1 -8 6 -8 11 0 46 80 38
87 -3 3 -13 -12 -22 -33z"/>
<path d="M7190 4730 c0 -5 5 -10 11 -10 5 0 7 5 4 10 -3 6 -8 10 -11 10 -2 0
-4 -4 -4 -10z"/>
<path d="M5110 4711 c0 -6 5 -13 10 -16 6 -3 10 1 10 9 0 9 -4 16 -10 16 -5 0
-10 -4 -10 -9z"/>
<path d="M5087 4647 c-8 -21 2 -105 14 -113 11 -6 11 35 1 91 -6 29 -9 35 -15
22z"/>
<path d="M5030 4619 c0 -9 9 -24 20 -34 26 -23 26 -4 0 26 -15 18 -19 20 -20
8z"/>
<path d="M9500 4544 c0 -5 14 -23 30 -39 39 -37 39 -28 0 16 -16 19 -30 29
-30 23z"/>
<path d="M9936 4518 c3 -4 37 -8 76 -8 39 0 68 3 65 7 -10 10 -147 11 -141 1z"/>
<path d="M9572 4461 c2 -6 48 -65 104 -133 202 -247 416 -599 494 -814 121
-331 128 -353 206 -651 13 -51 21 -98 18 -106 -6 -16 22 -31 38 -21 5 4 4 13
-5 22 -13 15 -20 48 -31 138 -1 11 -5 24 -8 30 -3 5 -9 36 -13 69 -4 33 -10
65 -14 70 -14 20 -44 163 -41 200 0 6 3 35 6 65 7 63 6 127 -2 153 -4 11 0 17
10 17 9 0 16 -7 16 -15 0 -21 38 -19 51 4 10 15 17 17 46 8 39 -12 48 -7 39
28 -4 16 -13 25 -26 25 -25 0 -36 18 -16 26 9 3 16 12 16 20 0 17 -12 18 -28
2 -9 -9 -16 -7 -31 6 -13 12 -30 17 -46 14 -14 -3 -25 -1 -25 3 0 5 12 9 28
10 26 0 26 1 5 11 -17 8 -21 17 -16 38 4 25 2 29 -26 35 -30 6 -44 25 -18 25
6 0 2 8 -11 18 -16 12 -25 32 -29 63 -3 24 -13 50 -22 57 -11 9 -12 15 -5 20
17 10 10 54 -15 102 -5 9 -22 15 -41 15 -18 0 -35 6 -37 13 -3 7 -24 12 -57
12 -56 0 -86 21 -101 71 -11 37 -101 112 -192 161 -18 10 -45 28 -59 40 -37
32 -127 127 -137 144 -9 15 -31 20 -25 5z m811 -878 c-7 -2 -19 -2 -25 0 -7 3
-2 5 12 5 14 0 19 -2 13 -5z m-38 -33 c3 -5 -1 -10 -9 -10 -8 0 -18 5 -21 10
-3 6 1 10 9 10 8 0 18 -4 21 -10z m55 -41 c0 -11 -4 -17 -10 -14 -5 3 -10 13
-10 21 0 8 5 14 10 14 6 0 10 -9 10 -21z"/>
<path d="M5691 4437 c-51 -26 -76 -58 -92 -120 -28 -102 54 -227 150 -227 105
0 182 139 146 264 -30 102 -106 133 -204 83z m159 -57 c35 -35 3 -67 -54 -52
-38 10 -43 25 -17 51 26 26 46 26 71 1z"/>
<path d="M5017 4443 c-11 -10 -8 -73 3 -73 6 0 10 18 10 40 0 41 -2 45 -13 33z"/>
<path d="M6535 4406 c-43 -19 -61 -43 -80 -111 -15 -51 -16 -66 -5 -110 20
-79 39 -112 75 -130 129 -60 259 149 184 296 -31 62 -105 85 -174 55z m139
-52 c23 -9 19 -31 -8 -49 -19 -13 -29 -14 -45 -5 -50 26 -2 75 53 54z"/>
<path d="M4180 4216 c0 -15 -5 -17 -35 -12 -31 6 -36 4 -45 -19 -13 -35 -54
-53 -77 -34 -15 13 -15 11 1 -17 10 -17 27 -41 37 -55 l19 -24 22 28 c11 16
31 33 44 38 16 6 24 16 24 33 0 36 21 44 39 15 9 -13 29 -37 44 -54 l29 -30
-24 41 c-13 22 -35 56 -50 75 -22 26 -28 30 -28 15z"/>
<path d="M10834 4216 c-4 -9 -18 -16 -34 -16 -39 0 -54 -20 -35 -47 11 -16 30
-23 73 -28 31 -3 77 -8 100 -11 40 -5 43 -4 38 14 -4 11 -2 23 4 27 18 11 11
23 -17 30 -16 3 -35 12 -43 20 -8 7 -30 16 -48 20 -24 5 -33 3 -38 -9z"/>
<path d="M7366 4196 c-20 -31 -20 -36 -1 -36 8 0 17 11 21 25 9 36 0 40 -20
11z"/>
<path d="M4519 4169 c-9 -18 -17 -20 -47 -16 -21 3 -45 8 -54 12 -16 6 -18 1
-18 -41 0 -29 -6 -54 -16 -65 -10 -11 -12 -19 -5 -23 6 -4 17 7 26 24 14 27
20 30 64 30 45 0 49 -2 54 -27 3 -16 3 -40 0 -55 -3 -17 -1 -28 6 -28 7 0 11
34 11 105 0 58 -2 105 -5 105 -2 0 -9 -10 -16 -21z"/>
<path d="M4290 4070 c0 -5 5 -10 11 -10 5 0 7 5 4 10 -3 6 -8 10 -11 10 -2 0
-4 -4 -4 -10z"/>
<path d="M3980 4025 c0 -8 -4 -15 -9 -15 -4 0 -11 -18 -14 -41 -3 -22 -8 -44
-12 -47 -3 -4 -24 4 -47 16 -22 13 -41 22 -44 20 -2 -2 21 -28 51 -58 62 -61
60 -61 107 25 16 29 23 35 26 23 2 -10 -4 -25 -13 -34 -9 -9 -24 -34 -32 -54
l-17 -38 -75 35 c-109 50 -109 50 -92 30 14 -18 126 -97 137 -97 3 0 18 -10
32 -21 l27 -22 -30 7 c-16 4 -31 12 -33 17 -2 5 -9 9 -15 9 -7 0 -31 10 -55
22 -40 22 -44 22 -53 6 -6 -10 -20 -18 -32 -18 -19 0 -17 -5 21 -41 23 -22 40
-44 37 -49 -3 -5 10 -21 30 -37 41 -33 43 -42 14 -67 -19 -16 -27 -17 -59 -7
-21 6 -41 11 -46 10 -15 0 163 -88 214 -105 26 -9 89 -36 140 -61 52 -24 106
-49 120 -54 l27 -10 -23 24 c-13 13 -39 33 -58 43 -18 10 -34 24 -34 31 0 8
-16 21 -35 30 -37 17 -44 30 -52 81 -4 27 -1 32 15 32 15 0 19 6 18 28 -1 15
-5 33 -9 40 -5 7 -3 12 7 12 24 0 54 48 62 96 3 24 13 48 22 53 12 7 13 12 5
23 -6 7 -13 24 -15 38 -2 17 -9 25 -22 25 -14 0 -22 10 -28 33 -9 32 -23 42
-30 20 -3 -7 -25 3 -58 25 -61 41 -70 44 -70 22z m110 -201 c0 -16 -16 -19
-25 -4 -8 13 4 32 16 25 5 -4 9 -13 9 -21z m-30 -34 c0 -11 -7 -20 -15 -20
-15 0 -21 21 -8 33 12 13 23 7 23 -13z m-22 -270 c22 -11 47 -20 55 -20 7 0
22 -7 33 -15 26 -20 -1 -20 -40 0 -15 8 -33 15 -40 15 -6 0 -24 9 -41 20 -39
26 -20 26 33 0z"/>
<path d="M6904 4019 c-47 -53 -306 -203 -412 -240 -123 -43 -192 -50 -359 -39
-239 16 -351 44 -480 121 -68 41 -154 126 -146 145 8 21 -31 17 -58 -6 l-24
-19 23 -1 c15 0 26 -9 32 -26 36 -94 75 -179 101 -217 60 -92 208 -215 288
-242 231 -76 489 -52 694 67 143 83 214 160 300 328 49 95 70 118 92 100 23
-19 29 -5 10 24 -21 32 -36 33 -61 5z"/>
<path d="M4415 4000 c-3 -5 -1 -10 4 -10 6 0 11 5 11 10 0 6 -2 10 -4 10 -3 0
-8 -4 -11 -10z"/>
<path d="M4522 3945 c0 -16 2 -22 5 -12 2 9 2 23 0 30 -3 6 -5 -1 -5 -18z"/>
<path d="M10275 3890 c-3 -5 -1 -10 4 -10 6 0 11 5 11 10 0 6 -2 10 -4 10 -3
0 -8 -4 -11 -10z"/>
<path d="M4976 3873 c-11 -11 -6 -23 9 -23 8 0 15 4 15 9 0 13 -16 22 -24 14z"/>
<path d="M5073 3816 c-14 -16 -10 -79 8 -126 14 -39 35 -64 43 -52 8 13 -13
104 -31 131 -11 17 -13 26 -5 29 13 4 17 32 5 32 -5 -1 -13 -7 -20 -14z"/>
<path d="M5000 3722 c0 -8 9 -27 21 -43 16 -23 19 -37 14 -73 -7 -46 0 -86 16
-86 5 0 9 9 9 19 0 27 17 35 29 14 8 -14 10 -15 11 -3 0 8 -12 26 -25 39 -17
15 -25 34 -25 56 0 33 -49 107 -50 77z"/>
<path d="M10507 3605 c-13 -9 -15 -15 -7 -20 14 -8 34 9 29 23 -3 7 -11 6 -22
-3z"/>
<path d="M5122 3598 c6 -18 28 -21 28 -4 0 9 -7 16 -16 16 -9 0 -14 -5 -12
-12z"/>
<path d="M1687 3587 c-4 -10 -7 -31 -7 -47 0 -16 -6 -31 -12 -34 -9 -3 -7 -9
7 -20 27 -23 35 -4 26 64 -4 38 -9 49 -14 37z"/>
<path d="M10502 3558 c-6 -7 -8 -25 -5 -41 4 -22 8 -25 19 -16 10 8 11 16 3
30 -5 11 -7 24 -4 29 9 14 -1 12 -13 -2z"/>
<path d="M5167 3543 c-4 -3 -7 -11 -7 -17 0 -6 5 -5 12 2 6 6 9 14 7 17 -3 3
-9 2 -12 -2z"/>
<path d="M1880 3500 c0 -5 5 -10 10 -10 6 0 10 5 10 10 0 6 -4 10 -10 10 -5 0
-10 -4 -10 -10z"/>
<path d="M4255 3478 c9 -30 117 -141 175 -180 25 -17 66 -51 92 -76 26 -25 51
-43 54 -39 4 4 0 15 -9 25 -10 10 -17 26 -17 34 0 21 -204 215 -252 239 -47
24 -51 24 -43 -3z"/>
<path d="M8198 3473 c7 -3 16 -2 19 1 4 3 -2 6 -13 5 -11 0 -14 -3 -6 -6z"/>
<path d="M10721 3464 c0 -11 3 -14 6 -6 3 7 2 16 -1 19 -3 4 -6 -2 -5 -13z"/>
<path d="M890 3460 c0 -5 5 -10 11 -10 5 0 7 5 4 10 -3 6 -8 10 -11 10 -2 0
-4 -4 -4 -10z"/>
<path d="M8034 3348 c-16 -13 -33 -26 -39 -30 -5 -4 -26 -20 -45 -36 -57 -47
-113 -82 -131 -82 -22 0 -29 29 -22 97 5 42 3 54 -6 49 -6 -4 -17 -3 -24 3 -9
7 -37 0 -95 -22 -68 -27 -82 -36 -82 -54 0 -27 -2 -27 68 -7 53 16 56 16 71
-3 9 -11 24 -23 34 -26 10 -4 16 -11 13 -16 -3 -5 2 -19 12 -31 24 -30 70 -20
121 24 20 18 51 43 69 55 l32 23 34 -29 c46 -38 50 -52 24 -82 -22 -24 -21
-24 17 4 54 39 57 46 35 70 -11 12 -20 26 -20 31 0 5 -9 15 -21 22 -15 10 -20
21 -16 38 5 29 6 29 -29 2z"/>
<path d="M930 3190 c-13 -8 -12 -10 3 -10 9 0 17 5 17 10 0 12 -1 12 -20 0z"/>
<path d="M5778 3193 c7 -3 16 -2 19 1 4 3 -2 6 -13 5 -11 0 -14 -3 -6 -6z"/>
<path d="M4575 3170 c-3 -5 -1 -10 4 -10 6 0 11 -5 11 -10 0 -14 62 -69 78
-70 22 0 12 20 -30 60 -45 42 -53 46 -63 30z"/>
<path d="M5019 3156 c25 -27 41 -33 41 -16 0 5 -15 17 -32 26 l-33 17 24 -27z"/>
<path d="M6848 3093 c6 -2 18 -2 25 0 6 3 1 5 -13 5 -14 0 -19 -2 -12 -5z"/>
<path d="M3224 3004 c18 -18 20 -30 6 -39 -5 -3 -10 -24 -10 -45 0 -48 -10
-55 -43 -30 l-25 20 -21 -26 c-12 -15 -21 -34 -21 -43 1 -13 3 -13 15 4 16 21
32 18 131 -19 55 -20 225 -36 299 -28 53 6 62 10 83 42 27 41 20 46 -48 31
-56 -12 -170 -15 -218 -5 -24 5 -31 12 -35 38 -2 17 -4 32 -3 33 1 2 56 6 122
9 65 4 128 11 139 15 12 5 -11 6 -56 3 -81 -6 -229 16 -281 42 -36 19 -53 18
-34 -2z"/>
<path d="M7440 2925 c-20 -24 -6 -28 15 -5 10 11 13 20 8 20 -6 0 -16 -7 -23
-15z"/>
<path d="M3116 2806 c3 -8 30 -30 60 -50 30 -20 54 -41 54 -46 0 -6 6 -10 14
-10 7 0 25 -9 40 -21 22 -17 45 -22 132 -26 63 -3 132 0 170 7 48 9 68 9 78 1
7 -6 20 -9 28 -6 13 5 17 -9 22 -77 4 -46 14 -93 22 -105 18 -29 78 -59 173
-88 42 -13 121 -39 176 -59 132 -48 218 -71 191 -51 -10 8 -116 47 -235 86
-236 78 -284 99 -296 126 -7 14 -20 111 -25 178 0 6 2 22 6 38 5 23 3 27 -16
27 -16 0 -21 4 -16 16 5 13 1 15 -21 9 -98 -24 -296 -24 -423 1 -40 8 -106 39
-115 54 -9 15 -25 12 -19 -4z"/>
<path d="M3175 2524 c-11 -8 -46 -27 -77 -41 -32 -14 -58 -30 -58 -34 0 -5 2
-9 5 -9 12 0 113 51 135 69 29 23 25 36 -5 15z"/>
<path d="M11203 2355 c-160 -29 -216 -62 -211 -123 4 -45 43 -71 122 -79 69
-7 106 2 106 26 0 19 34 31 87 31 13 0 34 5 46 12 21 11 20 12 -18 24 l-40 11
45 13 c52 15 253 8 340 -11 49 -11 53 -13 33 -22 -32 -14 -29 -24 9 -33 18 -3
39 -15 46 -25 14 -20 32 -25 32 -10 0 5 -8 12 -17 14 -37 10 44 6 87 -4 77
-17 169 30 170 88 0 12 -8 26 -17 31 -28 14 -139 40 -237 57 -112 19 -478 19
-583 0z"/>
<path d="M2465 2260 c-13 -6 -15 -9 -5 -9 8 0 22 4 30 9 18 12 2 12 -25 0z"/>
<path d="M2410 2240 c-8 -5 -10 -10 -5 -10 6 0 17 5 25 10 8 5 11 10 5 10 -5
0 -17 -5 -25 -10z"/>
<path d="M8480 2235 c0 -8 7 -15 15 -15 9 0 12 6 9 15 -4 8 -10 15 -15 15 -5
0 -9 -7 -9 -15z"/>
<path d="M4453 2193 c15 -49 29 -289 23 -383 -11 -173 -55 -599 -67 -646 -13
-50 -31 -56 -52 -16 -8 15 -22 41 -31 57 -9 17 -16 35 -16 41 0 6 -6 17 -14
23 -12 10 -19 5 -39 -24 l-25 -36 -15 45 c-13 38 -16 102 -17 343 0 178 -4
301 -10 307 -12 12 -12 10 -10 -84 3 -140 -30 -703 -43 -728 -11 -23 -17 -24
-124 -27 -99 -2 -113 0 -114 14 -1 19 -16 -25 -18 -51 -1 -13 6 -18 23 -18 14
0 27 4 31 9 3 6 59 9 133 7 70 -2 170 -4 223 -5 88 -1 97 -3 102 -21 4 -16 14
-20 44 -20 89 0 156 -35 264 -134 74 -68 137 -112 146 -102 3 3 4 7 2 9 -44
31 -121 93 -144 117 -24 26 -27 34 -18 49 11 18 1 41 -19 41 -4 0 -31 23 -60
51 -46 44 -51 52 -37 62 15 9 13 14 -17 42 -25 24 -34 41 -34 64 0 26 -4 31
-23 31 -23 0 -23 3 -25 93 -2 50 4 162 12 247 9 85 20 251 26 368 10 198 10
216 -7 250 -19 39 -59 60 -50 25z"/>
<path d="M6867 2168 c-4 -13 10 -154 17 -173 3 -5 5 8 6 30 1 22 5 54 9 70 11
47 -17 111 -32 73z"/>
<path d="M12120 2145 c-25 -19 -49 -34 -53 -34 -5 -1 -26 -16 -48 -34 -64 -55
-128 -84 -269 -123 -167 -45 -276 -53 -411 -30 -176 30 -289 79 -387 168 -30
26 -57 48 -60 48 -4 0 -7 -89 -7 -197 0 -109 -2 -274 -4 -368 -3 -93 0 -264 5
-380 9 -183 9 -212 -4 -222 -20 -16 -14 -22 24 -24 32 -1 209 18 237 27 24 8
38 39 85 190 42 132 77 195 127 231 14 10 56 41 93 68 111 84 251 161 342 188
107 33 213 57 247 57 29 0 120 49 148 80 15 16 17 28 10 72 -11 69 -12 210 -3
271 7 41 5 47 -10 46 -9 0 -37 -15 -62 -34z m-1002 -187 c7 -7 12 -25 12 -41
0 -15 5 -37 10 -48 7 -13 7 -19 0 -19 -5 0 -10 -4 -10 -8 0 -16 354 -107 372
-96 10 6 118 -17 118 -25 0 -10 -131 -62 -148 -60 -4 1 -11 0 -17 -1 -5 -1
-31 -1 -57 0 -29 1 -48 -3 -48 -9 0 -6 8 -11 18 -11 61 0 13 -41 -81 -71 -42
-13 -72 -26 -68 -29 28 -17 -38 -82 -97 -95 -31 -6 -33 -5 -54 42 -11 26 -25
50 -29 51 -12 5 -11 59 1 67 6 4 7 13 1 23 -21 42 -38 247 -20 257 5 4 17 24
26 46 16 41 46 52 71 27z m87 -118 c3 -6 -1 -7 -9 -4 -18 7 -21 14 -7 14 6 0
13 -4 16 -10z m88 -19 c4 -4 -6 -6 -23 -3 -16 2 -30 9 -30 14 0 10 39 1 53
-11z"/>
<path d="M2376 2135 c-5 -14 2 -45 10 -45 3 0 16 8 30 17 25 16 25 17 8 30
-24 17 -41 16 -48 -2z"/>
<path d="M3375 2143 c-83 -8 -251 -34 -285 -45 -40 -12 -107 -57 -114 -75 -3
-8 6 -15 22 -19 15 -4 32 -11 38 -15 6 -5 46 -14 88 -19 42 -5 84 -14 94 -18
57 -30 440 -44 435 -17 -1 7 22 10 60 9 90 -3 151 11 182 42 19 18 33 25 51
21 38 -7 114 12 114 29 0 38 -285 113 -381 100 -29 -4 -50 -2 -54 4 -3 5 -16
10 -28 10 -18 0 -19 -2 -7 -10 11 -7 -3 -10 -45 -10 -42 0 -56 3 -45 10 15 10
-36 11 -125 3z m410 -44 c91 -12 190 -41 190 -54 0 -6 -17 -11 -37 -13 -20 -2
-41 -9 -47 -16 -8 -10 -31 -12 -84 -8 -39 2 -76 8 -82 12 -5 4 -21 4 -35 1
-18 -5 -26 -15 -28 -34 -2 -15 -11 -31 -20 -36 -33 -16 -311 0 -343 20 -12 8
-12 10 1 18 8 6 11 13 7 17 -4 4 1 13 11 21 15 13 9 14 -48 10 -36 -2 -74 -1
-85 4 -11 4 -17 8 -14 8 3 1 54 11 115 22 191 37 365 47 499 28z m-625 -109
c12 -8 10 -10 -10 -10 -14 0 -32 5 -40 10 -12 8 -10 10 10 10 14 0 32 -5 40
-10z"/>
<path d="M3538 2143 c6 -2 18 -2 25 0 6 3 1 5 -13 5 -14 0 -19 -2 -12 -5z"/>
<path d="M2490 2111 c0 -14 25 -31 62 -42 80 -24 173 -48 176 -44 6 5 -79 45
-97 45 -9 0 -38 11 -66 25 -53 26 -75 31 -75 16z"/>
<path d="M5240 2086 c-12 -32 -13 -66 -2 -66 4 0 17 -3 29 -6 21 -6 22 -4 16
27 -3 19 -12 43 -19 53 -13 18 -14 18 -24 -8z"/>
<path d="M8905 2070 c-3 -5 1 -10 9 -10 8 0 18 5 21 10 3 6 -1 10 -9 10 -8 0
-18 -4 -21 -10z"/>
<path d="M6782 2010 c-16 -25 -16 -53 0 -48 13 5 31 68 19 68 -3 0 -12 -9 -19
-20z"/>
<path d="M5202 2000 c0 -14 2 -19 5 -12 2 6 2 18 0 25 -3 6 -5 1 -5 -13z"/>
<path d="M2388 1975 c-3 -14 -1 -25 3 -25 5 0 9 11 9 25 0 14 -2 25 -4 25 -2
0 -6 -11 -8 -25z"/>
<path d="M2894 1989 c-6 -8 -12 -59 -12 -114 -1 -55 -6 -205 -11 -332 -8 -183
-14 -240 -27 -268 -9 -20 -14 -38 -11 -42 12 -11 -24 -65 -39 -59 -10 4 -16
-3 -21 -24 -6 -32 -23 -37 -66 -21 -34 13 -41 49 -14 73 l22 18 -26 -6 c-15
-3 -30 -1 -33 5 -4 6 -15 11 -25 11 -10 0 -24 12 -32 26 -12 23 -11 27 3 38
15 11 14 14 -8 35 -19 18 -30 21 -54 16 -38 -8 -70 16 -70 52 0 13 -9 31 -20
40 -11 10 -20 24 -20 33 -1 36 -31 -44 -36 -99 -8 -72 -1 -104 29 -131 l22
-21 -30 6 c-16 4 -36 8 -42 11 -7 2 -13 0 -13 -4 0 -9 89 -36 108 -33 19 3 14
-27 -5 -31 -29 -5 84 -38 185 -53 59 -9 102 -22 120 -35 15 -11 48 -23 75 -26
l47 -7 1 44 c6 429 18 738 29 764 7 17 12 35 10 40 -1 6 -8 32 -14 59 -9 38
-13 46 -22 35z m-404 -673 c0 -3 -4 -8 -10 -11 -5 -3 -10 -1 -10 4 0 6 5 11
10 11 6 0 10 -2 10 -4z m36 -31 c4 -8 12 -15 20 -15 8 0 14 -7 14 -15 0 -8 9
-15 20 -15 11 0 20 -2 20 -4 0 -2 3 -11 6 -20 11 -28 -26 -18 -83 21 -48 33
-51 37 -35 49 22 17 31 17 38 -1z m294 -167 c0 -5 -6 -8 -14 -8 -9 0 -12 7 -9
21 4 16 8 17 14 7 5 -7 9 -16 9 -20z"/>
<path d="M5234 1935 c-3 -8 -3 -19 1 -25 8 -13 45 -13 45 0 0 6 -4 10 -10 10
-5 0 -10 7 -10 15 0 19 -19 20 -26 0z"/>
<path d="M6767 1943 c-4 -3 -7 -13 -7 -21 0 -9 3 -12 7 -9 3 4 12 2 20 -4 14
-13 17 -2 7 25 -7 17 -16 20 -27 9z"/>
<path d="M2370 1905 c0 -8 2 -15 4 -15 2 0 6 7 10 15 3 8 1 15 -4 15 -6 0 -10
-7 -10 -15z"/>
<path d="M2995 1856 c28 -14 66 -28 85 -31 33 -5 32 -4 -16 20 -28 14 -66 28
-85 31 -31 6 -30 4 16 -20z"/>
<path d="M8412 1831 l-24 -36 27 26 c15 15 26 31 24 37 -2 5 -14 -7 -27 -27z"/>
<path d="M3947 1845 c-58 -16 -77 -30 -27 -20 60 12 110 26 110 30 0 8 -32 4
-83 -10z"/>
<path d="M2438 1794 c-5 -4 -8 -19 -8 -33 1 -23 2 -24 11 -8 11 19 9 53 -3 41z"/>
<path d="M7424 1735 c-18 -43 -18 -55 -1 -30 15 21 28 65 21 65 -3 0 -12 -16
-20 -35z"/>
<path d="M2398 1670 c-19 -18 -25 -70 -8 -70 6 0 10 13 10 29 0 16 5 31 12 33
6 2 9 9 7 15 -2 6 -11 3 -21 -7z"/>
<path d="M12137 1653 c-18 -20 -49 -56 -71 -80 -21 -23 -35 -43 -31 -43 13 0
140 122 147 142 12 30 -10 21 -45 -19z"/>
<path d="M6920 1645 c-10 -12 -10 -15 3 -15 19 0 31 16 18 24 -5 3 -14 -1 -21
-9z"/>
<path d="M5155 1640 c-4 -6 10 -10 34 -10 22 0 43 5 46 10 4 6 -10 10 -34 10
-22 0 -43 -4 -46 -10z"/>
<path d="M5091 1601 c-11 -7 -10 -11 5 -18 23 -12 66 -2 72 15 4 14 -55 17
-77 3z"/>
<path d="M7204 1595 c36 -19 42 -19 26 0 -7 8 -22 15 -34 15 -18 0 -17 -2 8
-15z"/>
<path d="M7530 1437 c0 -19 27 -53 35 -45 10 10 -4 45 -20 52 -9 3 -15 0 -15
-7z"/>
<path d="M3451 1379 c-1 -9 4 -41 9 -70 6 -30 12 -92 14 -139 5 -116 30 -173
73 -168 10 1 52 -1 93 -6 49 -5 87 -4 110 3 31 10 27 10 -34 7 -57 -3 -71 -1
-87 15 -10 10 -28 19 -38 19 -27 0 -34 15 -33 67 0 29 -5 46 -13 50 -10 3 -11
11 -6 26 8 20 -2 133 -14 166 -3 8 -15 11 -29 9 -18 -4 -27 1 -34 16 -8 16
-11 17 -11 5z m69 -289 c0 -5 -4 -10 -10 -10 -5 0 -10 5 -10 10 0 6 5 10 10
10 6 0 10 -4 10 -10z"/>
<path d="M5640 1292 c0 -4 4 -12 8 -19 9 -15 54 -5 49 11 -4 12 -57 19 -57 8z"/>
<path d="M7227 1186 c-4 -10 -7 -25 -6 -34 0 -11 4 -9 10 7 5 13 8 29 6 35 -2
5 -6 2 -10 -8z"/>
<path d="M4948 729 c-9 -5 -28 -10 -42 -11 -14 -1 -22 -6 -18 -10 4 -4 39 -2
77 6 39 7 61 15 50 16 -11 1 -27 3 -36 5 -8 1 -23 -1 -31 -6z"/>
<path d="M5463 645 c30 -27 44 -30 67 -15 12 8 11 10 -6 10 -11 0 -29 7 -40
15 -34 25 -52 17 -21 -10z"/>
<path d="M6390 6160 c-12 -8 -9 -10 13 -10 16 0 26 4 22 10 -8 12 -16 12 -35
0z"/>
<path d="M6385 6100 c-4 -6 5 -10 19 -10 14 0 26 5 26 10 0 6 -9 10 -19 10
-11 0 -23 -4 -26 -10z"/>
<path d="M10030 1730 c0 -5 5 -10 10 -10 6 0 10 5 10 10 0 6 -4 10 -10 10 -5
0 -10 -4 -10 -10z"/>
<path d="M10090 1680 c-13 -8 -13 -10 2 -10 9 0 20 5 23 10 8 13 -5 13 -25 0z"/>
</g>
</svg>
